<svg id="Layer_1" data-name="Layer 1" xmlns="http://www.w3.org/2000/svg" viewBox="0 0 1671.26 355.33">
  <defs>
    <style>
      .cls-1 {
        fill: #0098f7;
      }

      .cls-2 {
        fill: #ccc;
      }
    </style>
  </defs>
  <title>Froala Editor</title>
  <path class="cls-1" d="M123.58,78.65A16.16,16.16,0,0,0,111.13,73H16.6C7.6,73,0,80.78,0,89.94V128.3a16.45,16.45,0,0,0,32.9,0V104.14h78.5A15.63,15.63,0,0,0,126.87,91.2,15.14,15.14,0,0,0,123.58,78.65Z"/>
  <path class="cls-1" d="M103.54,170a16.05,16.05,0,0,0-11.44-4.85H15.79A15.81,15.81,0,0,0,0,180.93v88.69a16.88,16.88,0,0,0,5,11.92,16,16,0,0,0,11.35,4.7h.17a16.45,16.45,0,0,0,16.41-16.6v-73.4H92.2A15.61,15.61,0,0,0,107.89,181,15.1,15.1,0,0,0,103.54,170Z"/>
  <path class="cls-1" d="M233,144.17c-5.29-6.22-16-7.52-24.14-7.52-16.68,0-28.72,7.71-36.5,23.47v-5.67a16.15,16.15,0,1,0-32.3,0v115.5a16.15,16.15,0,1,0,32.3,0v-38.7c0-19.09,3.5-63.5,35.9-63.5a44.73,44.73,0,0,1,5.95.27h.12c12.79,1.2,20.06-2.73,21.6-11.69C236.76,151.48,235.78,147.39,233,144.17Z"/>
  <path class="cls-1" d="M371.83,157c-13.93-13.11-32.9-20.33-53.43-20.33S279,143.86,265.12,157c-14.67,13.88-22.42,32.82-22.42,54.77,0,21.68,8,41.28,22.4,55.2,13.92,13.41,32.85,20.8,53.3,20.8s39.44-7.38,53.44-20.79c14.55-13.94,22.56-33.54,22.56-55.21S386.39,170.67,371.83,157Zm-9.73,54.77c0,25.84-18.38,44.6-43.7,44.6s-43.7-18.76-43.7-44.6c0-25.15,18.38-43.4,43.7-43.4S362.1,186.59,362.1,211.74Z"/>
  <path class="cls-1" d="M552.7,138.14a16.17,16.17,0,0,0-16,16.3v1C526.41,143.85,509,136.64,490,136.64c-19.83,0-38.19,7.24-51.69,20.4C424,171,416.4,190,416.4,212c0,21.61,7.78,41.16,21.9,55,13.56,13.33,31.92,20.67,51.7,20.67,18.83,0,36.29-7.41,46.7-19.37v1.57a16.15,16.15,0,1,0,32.3,0V154.44A16.32,16.32,0,0,0,552.7,138.14Zm-16.3,73.6c0,30.44-22.81,44.3-44,44.3-24.57,0-43.1-19-43.1-44.3s18.13-43.4,43.1-43.4C513.73,168.34,536.4,183.55,536.4,211.74Z"/>
  <path class="cls-1" d="M623.5,61.94a16.17,16.17,0,0,0-16,16.3v191.7a16.15,16.15,0,1,0,32.3,0V78.24A16.32,16.32,0,0,0,623.5,61.94Z"/>
  <path class="cls-1" d="M806.5,138.14a16.17,16.17,0,0,0-16,16.3v1c-10.29-11.63-27.74-18.84-46.7-18.84-19.83,0-38.19,7.24-51.69,20.4-14.33,14-21.91,33-21.91,55,0,21.61,7.78,41.16,21.9,55,13.56,13.33,31.92,20.67,51.7,20.67,18.83,0,36.29-7.41,46.7-19.37v1.57a16.15,16.15,0,1,0,32.3,0V154.44A16.32,16.32,0,0,0,806.5,138.14Zm-16.3,73.6c0,30.44-22.81,44.3-44,44.3-24.57,0-43.1-19-43.1-44.3s18.13-43.4,43.1-43.4C767.53,168.34,790.2,183.55,790.2,211.74Z"/>
  <path class="cls-2" d="M1019.54,264.24h-88.9v-67.4h73.9a10.55,10.55,0,1,0,0-21.1h-73.9v-71h85.3a10.55,10.55,0,1,0,0-21.1h-96.6c-6.18,0-11.6,5.56-11.6,11.9v177.9c0,6.34,5.42,11.9,11.6,11.9h100.2a10.55,10.55,0,1,0,0-21.1Z"/>
  <path class="cls-2" d="M1199.44,83.84a11.17,11.17,0,0,0-11-11.3,11.31,11.31,0,0,0-11.3,11.3V178l-4.66-8c-8.34-14.25-25.92-22.76-47-22.76-18.61,0-35.71,6.74-48.16,19-13.18,12.94-20.14,30.73-20.14,51.43,0,20.26,7.25,38.54,20.4,51.47,12.62,12.4,29.74,19.23,48.2,19.23,20.09,0,38.44-9.17,46.74-23.36l4.66-8v18.53a11.31,11.31,0,0,0,11.3,11.3,11.17,11.17,0,0,0,11-11.3Zm-37.3,169.86c-8.89,8.34-21.07,12.94-34.3,12.94-27.25,0-47.8-21.19-47.8-49.3s20.1-48.4,47.8-48.4c23.75,0,49,17,49,48.4C1176.84,232.1,1171.76,244.67,1162.14,253.7Z"/>
  <g>
    <path class="cls-2" d="M1259.23,111.64c9.35,0,16.4-6.53,16.4-15.2s-7.05-15.2-16.4-15.2c-9.2,0-16.4,6.68-16.4,15.2S1250,111.64,1259.23,111.64Z"/>
    <path class="cls-2" d="M1270.53,160a11.31,11.31,0,0,0-11.3-11.3,11.17,11.17,0,0,0-11,11.3v115.5a11.17,11.17,0,0,0,11,11.3,11.31,11.31,0,0,0,11.3-11.3Z"/>
  </g>
  <path class="cls-2" d="M1373.83,150.24h-22.3v-43a11.31,11.31,0,0,0-11.3-11.3,11.17,11.17,0,0,0-11,11.3v43h-17.5a9.05,9.05,0,1,0,0,18.1h17.5v107.2a11.17,11.17,0,0,0,11,11.3,11.31,11.31,0,0,0,11.3-11.3V168.34h22.3a9.05,9.05,0,1,0,0-18.1Z"/>
  <path class="cls-2" d="M1474,147.24c-41,0-70.7,29.48-70.7,70.1,0,20.31,7.41,38.63,20.87,51.6,13,12.51,30.68,19.4,49.83,19.4s36.92-6.89,50-19.41c13.55-13,21-31.31,21-51.6C1545,176.72,1515.17,147.24,1474,147.24Zm34.3,106.13a50.12,50.12,0,0,1-68.6,0c-9.29-9.08-14.4-21.87-14.4-36,0-28,20.48-48.4,48.7-48.4s48.7,20.35,48.7,48.4C1522.73,231.49,1517.61,244.28,1508.33,253.36Z"/>
  <path class="cls-2" d="M1607.43,236.84c0-43.53,14.91-68.5,40.9-68.5a49.11,49.11,0,0,1,6.59.32c12.95,1.2,15.43-3.4,16.15-7.54.55-3.37,0-6-1.81-8.11-3.16-3.72-10.38-5.76-20.33-5.76-18.44,0-30.07,10.39-36.6,32.7l-4.9,16.74V160a11.31,11.31,0,0,0-11.3-11.3,11.17,11.17,0,0,0-11,11.3v115.5a11.17,11.17,0,0,0,11,11.3,11.31,11.31,0,0,0,11.3-11.3Z"/>
</svg>
